<svg id="Layer_1" data-name="Layer 1" xmlns="http://www.w3.org/2000/svg" viewBox="0 0 50 50"><defs><style>.cls-1,.cls-2,.cls-4{fill:none;}.cls-2,.cls-4{stroke:#272633;stroke-linejoin:round;}.cls-2{stroke-width:1.87px;}.cls-3{fill:#272633;fill-rule:evenodd;}.cls-4{stroke-linecap:round;stroke-width:1.87px;}</style></defs><g id="Battery"><g id="Group-13"><path id="Mask" class="cls-1" d="M0,25C0,6.25,6.25,0,25,0S50,6.25,50,25,43.75,50,25,50,0,43.75,0,25"/><g id="Group-28"><path id="Rectangle" class="cls-2" d="M19.08,13.68H30.92A2.08,2.08,0,0,1,33,15.76V37.92A2.08,2.08,0,0,1,30.92,40H19.08A2.08,2.08,0,0,1,17,37.92V15.76A2.08,2.08,0,0,1,19.08,13.68Z"/><path id="Path-24" class="cls-3" d="M25.38,21.07l-3.74,5.15a.78.78,0,0,0,.18,1.1.76.76,0,0,0,.46.16h.24a1,1,0,0,1,1,1,1,1,0,0,1,0,.23l-.72,3.15A1,1,0,0,0,23.52,33a1,1,0,0,0,1-.36l3.74-5a.81.81,0,0,0-.17-1.14.76.76,0,0,0-.46-.16h-.3a1,1,0,0,1-1-1.07,1.5,1.5,0,0,1,0-.2l.74-3.23a.94.94,0,0,0-1.68-.76Z"/><line id="Path" class="cls-4" x1="22.33" y1="10.53" x2="27.67" y2="10.53"/></g></g></g></svg>